<svg xmlns="http://www.w3.org/2000/svg" viewBox="0 0 2330.8 1190.88"><title>albo_Logo_Collection_F</title><g id="Logo"><path d="M928.73,271.38H871.61q-22.92-.44-22.52,22.48V895q-.44,22.95,22.52,22.5h57.12q22.93.43,22.48-22.5V293.86q.46-22.94-22.48-22.48"></path><path d="M1278.89,449.53q-73.31,0-136.32,45V293.86q.45-22.94-22.5-22.48h-57.15q-22.92-.45-22.48,22.48V895q-.46,22.95,22.48,22.5h53.55q23,.43,22.52-22.5v-15.3q65.64,45,139.9,45,98.07,0,167.82-69.73t69.75-167.81q0-98.13-69.75-167.84t-167.82-69.76m96.76,334.29q-39.62,39.61-96.76,39.63t-96.71-39.63q-39.62-39.12-39.61-96.69t39.61-96.74q39.55-39.61,95.34-39.6,59,0,98.13,39.6,39.54,39.55,39.57,96.74,0,57.55-39.57,96.69"></path><path d="M1816.66,449.53q-102.6,0-171.84,69.76Q1575.94,589,1576,686.64q0,99,69.75,168.3,69.24,69.75,168.68,69.73,98.1,0,167.41-68.85,69.75-69.72,69.75-169.62,0-98.07-69.33-167.36t-165.56-69.31m93.58,333.85q-39.15,39.15-95.85,39.17-56.17,0-95.39-39.17-40-39.58-40-97.18,0-55.77,39.11-94.94,39.54-39.56,95.39-39.59,58.54,0,97.65,39.59t39.11,95.38q0,57.17-40,96.74"></path><path d="M749.58,686.2V895c.32,15.3-7.2,22.77-22.46,22.5H670c-15.31.27-22.83-7.2-22.56-22.5V702.63a142,142,0,0,0,.86-16c0-2.65,0-5.26-.23-7.87v-.09c2.07-10.22,9.41-15.22,21.93-15h57.12q21-.4,22.37,18.86v.09A29,29,0,0,1,749.58,686.2Z"></path><path d="M749.49,682.69v-.09q-1.22-95.74-69.23-163.76A257.32,257.32,0,0,0,647.44,491Q589.1,449.52,514.7,449.52q-102.63,0-171.87,69.77Q274,589,274,686.65q0,99,69.73,168.31Q413,924.71,512.4,924.69q76.23,0,135-41.6a256.37,256.37,0,0,0,32.37-27.27q69.75-69.69,69.73-169.62C749.54,685,749.54,683.86,749.49,682.69Zm-102,19.94q-4.86,46.8-39.2,80.76-39.16,39.17-95.84,39.16-56.17,0-95.38-39.16-40-39.57-40-97.19,0-55.77,39.12-94.93,39.57-39.57,95.38-39.61c39.07,0,71.53,13.23,97.68,39.61q33.42,33.83,38.26,79.63c.32,2.56.5,5.17.63,7.79v.09c.18,2.61.23,5.22.23,7.87A142,142,0,0,1,647.44,702.63Z"></path></g></svg>